<svg xmlns="http://www.w3.org/2000/svg" viewBox="0 0 1050 3937" width="1050" height="3937" role="img" aria-label="Bluetooth/PermissionMissing layout wireframe">
  <title>Bluetooth/PermissionMissing — layout wireframe (slots + tokens)</title>
  <rect width="1050" height="3937" fill="#ffffff"/>
  <g>
    <rect x="0" y="0" width="1050" height="3937" fill="none" fill-opacity="0" stroke="#5B6470" stroke-width="1" stroke-opacity="0.5"/>
  </g>
  <g>
    <rect x="0" y="0" width="1050" height="3937" fill="none" fill-opacity="0" stroke="#2E7D6B" stroke-width="1" stroke-opacity="0.5"/>
  </g>
  <g>
    <rect x="0" y="0" width="1050" height="3937" fill="#FAF8FF" fill-opacity="1" stroke="#8E6BA8" stroke-width="1.5" stroke-opacity="1"/>
    <text x="3" y="12" font-family="system-ui, sans-serif" font-size="9" fill="#8E6BA8">#FFFAF8FF</text>
  </g>
  <g>
    <rect x="0" y="0" width="1050" height="3239" fill="none" fill-opacity="0" stroke="#B0813B" stroke-width="1" stroke-opacity="0.5"/>
  </g>
  <g>
    <path d="M73.5,42 H976.5 A31.5,31.5 0 0 1 1008,73.5 V367.5 A31.5,31.5 0 0 1 976.5,399 H73.5 A31.5,31.5 0 0 1 42,367.5 V73.5 A31.5,31.5 0 0 1 73.5,42 Z" fill="#F4F3FA" fill-opacity="1" stroke="#3B72A8" stroke-width="1.5" stroke-opacity="1"/>
    <text x="45" y="54" font-family="system-ui, sans-serif" font-size="9" fill="#3B72A8">#FFF4F3FA</text>
  </g>
  <g>
    <rect x="42" y="42" width="966" height="357" fill="none" fill-opacity="0" stroke="#A85B6B" stroke-width="1" stroke-opacity="0.5"/>
  </g>
  <g>
    <rect x="84" y="84" width="882" height="273" fill="none" fill-opacity="0" stroke="#4F8A4A" stroke-width="1" stroke-opacity="0.5"/>
  </g>
  <g>
    <rect x="84" y="84" width="882" height="126" fill="none" fill-opacity="0" stroke="#7A7A33" stroke-width="1" stroke-opacity="0.5"/>
  </g>
  <g>
    <rect x="84" y="116" width="63" height="63" fill="none" fill-opacity="0" stroke="#5B6470" stroke-width="1" stroke-opacity="0.5"/>
  </g>
  <g>
    <rect x="179" y="116" width="599" height="63" fill="none" fill-opacity="0" stroke="#5B6470" stroke-width="1" stroke-opacity="0.5"/>
  </g>
  <g>
    <rect x="179" y="116" width="399" height="63" fill="none" fill-opacity="0" stroke="#2E7D6B" stroke-width="1" stroke-opacity="0.5"/>
  </g>
  <g>
    <path d="M830.5,95 H913.5 A52.5,52.5 0 0 1 966,147.5 V147.5 A52.5,52.5 0 0 1 913.5,200 H830.5 A52.5,52.5 0 0 1 778,147.5 V147.5 A52.5,52.5 0 0 1 830.5,95 Z" fill="none" fill-opacity="0" stroke="#5B6470" stroke-width="1.5" stroke-opacity="1"/>
  </g>
  <g>
    <rect x="810" y="116" width="124" height="63" fill="none" fill-opacity="0" stroke="#2E7D6B" stroke-width="1" stroke-opacity="0.5"/>
  </g>
  <g>
    <rect x="810" y="121" width="124" height="53" fill="none" fill-opacity="0" stroke="#8E6BA8" stroke-width="1" stroke-opacity="0.5"/>
  </g>
  <g>
    <path d="M136.5,242 H913.5 A52.5,52.5 0 0 1 966,294.5 V294.5 A52.5,52.5 0 0 1 913.5,347 H136.5 A52.5,52.5 0 0 1 84,294.5 V294.5 A52.5,52.5 0 0 1 136.5,242 Z" fill="none" fill-opacity="0" stroke="#797A83" stroke-width="1.5" stroke-opacity="1"/>
    <text x="87" y="254" font-family="system-ui, sans-serif" font-size="9" fill="#797A83">◻ #FF797A83</text>
  </g>
  <g>
    <rect x="147" y="263" width="756" height="63" fill="none" fill-opacity="0" stroke="#5B6470" stroke-width="1" stroke-opacity="0.5"/>
  </g>
  <g>
    <rect x="268" y="268" width="515" height="53" fill="none" fill-opacity="0" stroke="#2E7D6B" stroke-width="1" stroke-opacity="0.5"/>
  </g>
  <g>
    <path d="M73.5,431 H976.5 A31.5,31.5 0 0 1 1008,462.5 V840.5 A31.5,31.5 0 0 1 976.5,872 H73.5 A31.5,31.5 0 0 1 42,840.5 V462.5 A31.5,31.5 0 0 1 73.5,431 Z" fill="#F9DEDC" fill-opacity="1" stroke="#3B72A8" stroke-width="1.5" stroke-opacity="1"/>
    <text x="45" y="443" font-family="system-ui, sans-serif" font-size="9" fill="#3B72A8">#FFF9DEDC</text>
  </g>
  <g>
    <rect x="42" y="431" width="966" height="441" fill="none" fill-opacity="0" stroke="#A85B6B" stroke-width="1" stroke-opacity="0.5"/>
  </g>
  <g>
    <rect x="84" y="473" width="882" height="357" fill="none" fill-opacity="0" stroke="#4F8A4A" stroke-width="1" stroke-opacity="0.5"/>
  </g>
  <g>
    <rect x="84" y="473" width="593" height="63" fill="none" fill-opacity="0" stroke="#7A7A33" stroke-width="1" stroke-opacity="0.5"/>
  </g>
  <g>
    <rect x="84" y="557" width="882" height="126" fill="none" fill-opacity="0" stroke="#7A7A33" stroke-width="1" stroke-opacity="0.5"/>
  </g>
  <g>
    <path d="M136.5,715 H384.5 A52.5,52.5 0 0 1 437,767.5 V767.5 A52.5,52.5 0 0 1 384.5,820 H136.5 A52.5,52.5 0 0 1 84,767.5 V767.5 A52.5,52.5 0 0 1 136.5,715 Z" fill="none" fill-opacity="0" stroke="#797A83" stroke-width="1.5" stroke-opacity="1"/>
    <text x="87" y="727" font-family="system-ui, sans-serif" font-size="9" fill="#797A83">◻ #FF797A83</text>
  </g>
  <g>
    <rect x="147" y="736" width="227" height="63" fill="none" fill-opacity="0" stroke="#5B6470" stroke-width="1" stroke-opacity="0.5"/>
  </g>
  <g>
    <rect x="147" y="741" width="227" height="53" fill="none" fill-opacity="0" stroke="#2E7D6B" stroke-width="1" stroke-opacity="0.5"/>
  </g>
  <g>
    <path d="M73.5,904 H976.5 A31.5,31.5 0 0 1 1008,935.5 V1313.5 A31.5,31.5 0 0 1 976.5,1345 H73.5 A31.5,31.5 0 0 1 42,1313.5 V935.5 A31.5,31.5 0 0 1 73.5,904 Z" fill="#F4F3FA" fill-opacity="1" stroke="#3B72A8" stroke-width="1.5" stroke-opacity="1"/>
    <text x="45" y="916" font-family="system-ui, sans-serif" font-size="9" fill="#3B72A8">#FFF4F3FA</text>
  </g>
  <g>
    <rect x="42" y="904" width="966" height="441" fill="none" fill-opacity="0" stroke="#A85B6B" stroke-width="1" stroke-opacity="0.5"/>
  </g>
  <g>
    <rect x="84" y="946" width="882" height="357" fill="none" fill-opacity="0" stroke="#4F8A4A" stroke-width="1" stroke-opacity="0.5"/>
  </g>
  <g>
    <rect x="84" y="946" width="276" height="63" fill="none" fill-opacity="0" stroke="#7A7A33" stroke-width="1" stroke-opacity="0.5"/>
  </g>
  <g>
    <rect x="84" y="1030" width="882" height="126" fill="none" fill-opacity="0" stroke="#7A7A33" stroke-width="1" stroke-opacity="0.5"/>
  </g>
  <g>
    <path d="M523,1041 H913.5 A52.5,52.5 0 0 1 966,1093.5 V1093.5 A52.5,52.5 0 0 1 913.5,1146 H523 A0,0 0 0 1 523,1146 V1041 A0,0 0 0 1 523,1041 Z" fill="none" fill-opacity="0" stroke="#5D5F67" stroke-width="1.5" stroke-opacity="1"/>
    <text x="526" y="1053" font-family="system-ui, sans-serif" font-size="9" fill="#5D5F67">◻ #FF5D5F67</text>
  </g>
  <g>
    <rect x="555" y="1062" width="379" height="63" fill="none" fill-opacity="0" stroke="#2E7D6B" stroke-width="1" stroke-opacity="0.5"/>
  </g>
  <g>
    <rect x="671" y="1067" width="148" height="53" fill="none" fill-opacity="0" stroke="#8E6BA8" stroke-width="1" stroke-opacity="0.5"/>
  </g>
  <g>
    <rect x="671" y="1067" width="53" height="53" fill="none" fill-opacity="0" stroke="#B0813B" stroke-width="1" stroke-opacity="0.5"/>
  </g>
  <g>
    <rect x="739" y="1067" width="74" height="53" fill="none" fill-opacity="0" stroke="#B0813B" stroke-width="1" stroke-opacity="0.5"/>
  </g>
  <g>
    <path d="M136.5,1041 H526 A0,0 0 0 1 526,1041 V1146 A0,0 0 0 1 526,1146 H136.5 A52.5,52.5 0 0 1 84,1093.5 V1093.5 A52.5,52.5 0 0 1 136.5,1041 Z" fill="#6E7488" fill-opacity="1" stroke="#5D5F67" stroke-width="1.5" stroke-opacity="1"/>
    <text x="87" y="1053" font-family="system-ui, sans-serif" font-size="9" fill="#5D5F67">#FF6E7488</text>
  </g>
  <g>
    <rect x="116" y="1062" width="378" height="63" fill="none" fill-opacity="0" stroke="#2E7D6B" stroke-width="1" stroke-opacity="0.5"/>
  </g>
  <g>
    <rect x="191" y="1067" width="229" height="53" fill="none" fill-opacity="0" stroke="#8E6BA8" stroke-width="1" stroke-opacity="0.5"/>
  </g>
  <g>
    <rect x="191" y="1067" width="53" height="53" fill="none" fill-opacity="0" stroke="#B0813B" stroke-width="1" stroke-opacity="0.5"/>
  </g>
  <g>
    <rect x="259" y="1067" width="155" height="53" fill="none" fill-opacity="0" stroke="#B0813B" stroke-width="1" stroke-opacity="0.5"/>
  </g>
  <g>
    <rect x="84" y="1177" width="882" height="126" fill="none" fill-opacity="0" stroke="#7A7A33" stroke-width="1" stroke-opacity="0.5"/>
  </g>
  <g>
    <path d="M73.5,1377 H976.5 A31.5,31.5 0 0 1 1008,1408.5 V1786.5 A31.5,31.5 0 0 1 976.5,1818 H73.5 A31.5,31.5 0 0 1 42,1786.5 V1408.5 A31.5,31.5 0 0 1 73.5,1377 Z" fill="#F4F3FA" fill-opacity="1" stroke="#3B72A8" stroke-width="1.5" stroke-opacity="1"/>
    <text x="45" y="1389" font-family="system-ui, sans-serif" font-size="9" fill="#3B72A8">#FFF4F3FA</text>
  </g>
  <g>
    <rect x="42" y="1377" width="966" height="441" fill="none" fill-opacity="0" stroke="#A85B6B" stroke-width="1" stroke-opacity="0.5"/>
  </g>
  <g>
    <rect x="84" y="1419" width="882" height="357" fill="none" fill-opacity="0" stroke="#4F8A4A" stroke-width="1" stroke-opacity="0.5"/>
  </g>
  <g>
    <rect x="84" y="1419" width="235" height="63" fill="none" fill-opacity="0" stroke="#7A7A33" stroke-width="1" stroke-opacity="0.5"/>
  </g>
  <g>
    <rect x="84" y="1503" width="882" height="126" fill="none" fill-opacity="0" stroke="#7A7A33" stroke-width="1" stroke-opacity="0.5"/>
  </g>
  <g>
    <path d="M136.5,1661 H478.5 A52.5,52.5 0 0 1 531,1713.5 V1713.5 A52.5,52.5 0 0 1 478.5,1766 H136.5 A52.5,52.5 0 0 1 84,1713.5 V1713.5 A52.5,52.5 0 0 1 136.5,1661 Z" fill="none" fill-opacity="0" stroke="#797A83" stroke-width="1.5" stroke-opacity="1"/>
    <text x="87" y="1673" font-family="system-ui, sans-serif" font-size="9" fill="#797A83">◻ #FF797A83</text>
  </g>
  <g>
    <rect x="147" y="1682" width="321" height="63" fill="none" fill-opacity="0" stroke="#5B6470" stroke-width="1" stroke-opacity="0.5"/>
  </g>
  <g>
    <rect x="147" y="1687" width="321" height="53" fill="none" fill-opacity="0" stroke="#2E7D6B" stroke-width="1" stroke-opacity="0.5"/>
  </g>
  <g>
    <path d="M73.5,1850 H976.5 A31.5,31.5 0 0 1 1008,1881.5 V2028.5 A31.5,31.5 0 0 1 976.5,2060 H73.5 A31.5,31.5 0 0 1 42,2028.5 V1881.5 A31.5,31.5 0 0 1 73.5,1850 Z" fill="#F4F3FA" fill-opacity="1" stroke="#3B72A8" stroke-width="1.5" stroke-opacity="1"/>
    <text x="45" y="1862" font-family="system-ui, sans-serif" font-size="9" fill="#3B72A8">#FFF4F3FA</text>
  </g>
  <g>
    <rect x="42" y="1850" width="966" height="210" fill="none" fill-opacity="0" stroke="#A85B6B" stroke-width="1" stroke-opacity="0.5"/>
  </g>
  <g>
    <rect x="84" y="1892" width="882" height="126" fill="none" fill-opacity="0" stroke="#4F8A4A" stroke-width="1" stroke-opacity="0.5"/>
  </g>
  <g>
    <path d="M165.5,1903 H165.5 A52.5,52.5 0 0 1 218,1955.5 V1955.5 A52.5,52.5 0 0 1 165.5,2008 H165.5 A52.5,52.5 0 0 1 113,1955.5 V1955.5 A52.5,52.5 0 0 1 165.5,1903 Z" fill="none" fill-opacity="0" stroke="#7A7A33" stroke-width="1.5" stroke-opacity="1"/>
  </g>
  <g>
    <rect x="134" y="1924" width="63" height="63" fill="none" fill-opacity="0" stroke="#5B6470" stroke-width="1" stroke-opacity="0.5"/>
  </g>
  <g>
    <path d="M309.5,1903 H309.5 A52.5,52.5 0 0 1 362,1955.5 V1955.5 A52.5,52.5 0 0 1 309.5,2008 H309.5 A52.5,52.5 0 0 1 257,1955.5 V1955.5 A52.5,52.5 0 0 1 309.5,1903 Z" fill="none" fill-opacity="0" stroke="#7A7A33" stroke-width="1.5" stroke-opacity="1"/>
  </g>
  <g>
    <rect x="278" y="1924" width="63" height="63" fill="none" fill-opacity="0" stroke="#5B6470" stroke-width="1" stroke-opacity="0.5"/>
  </g>
  <g>
    <path d="M453.5,1903 H453.5 A52.5,52.5 0 0 1 506,1955.5 V1955.5 A52.5,52.5 0 0 1 453.5,2008 H453.5 A52.5,52.5 0 0 1 401,1955.5 V1955.5 A52.5,52.5 0 0 1 453.5,1903 Z" fill="#2A4174" fill-opacity="1" stroke="#7A7A33" stroke-width="1.5" stroke-opacity="1"/>
    <text x="404" y="1915" font-family="system-ui, sans-serif" font-size="9" fill="#7A7A33">#FF2A4174</text>
  </g>
  <g>
    <rect x="401" y="1903" width="105" height="105" fill="none" fill-opacity="0" stroke="#5B6470" stroke-width="1" stroke-opacity="0.5"/>
  </g>
  <g>
    <rect x="422" y="1924" width="63" height="63" fill="none" fill-opacity="0" stroke="#2E7D6B" stroke-width="1" stroke-opacity="0.5"/>
  </g>
  <g>
    <path d="M597.5,1903 H597.5 A52.5,52.5 0 0 1 650,1955.5 V1955.5 A52.5,52.5 0 0 1 597.5,2008 H597.5 A52.5,52.5 0 0 1 545,1955.5 V1955.5 A52.5,52.5 0 0 1 597.5,1903 Z" fill="none" fill-opacity="0" stroke="#7A7A33" stroke-width="1.5" stroke-opacity="1"/>
  </g>
  <g>
    <rect x="566" y="1924" width="63" height="63" fill="none" fill-opacity="0" stroke="#5B6470" stroke-width="1" stroke-opacity="0.5"/>
  </g>
  <g>
    <path d="M741.5,1903 H741.5 A52.5,52.5 0 0 1 794,1955.5 V1955.5 A52.5,52.5 0 0 1 741.5,2008 H741.5 A52.5,52.5 0 0 1 689,1955.5 V1955.5 A52.5,52.5 0 0 1 741.5,1903 Z" fill="none" fill-opacity="0" stroke="#7A7A33" stroke-width="1.5" stroke-opacity="1"/>
  </g>
  <g>
    <rect x="710" y="1924" width="63" height="63" fill="none" fill-opacity="0" stroke="#5B6470" stroke-width="1" stroke-opacity="0.5"/>
  </g>
  <g>
    <path d="M885.5,1903 H885.5 A52.5,52.5 0 0 1 938,1955.5 V1955.5 A52.5,52.5 0 0 1 885.5,2008 H885.5 A52.5,52.5 0 0 1 833,1955.5 V1955.5 A52.5,52.5 0 0 1 885.5,1903 Z" fill="none" fill-opacity="0" stroke="#7A7A33" stroke-width="1.5" stroke-opacity="1"/>
  </g>
  <g>
    <rect x="854" y="1924" width="63" height="63" fill="none" fill-opacity="0" stroke="#5B6470" stroke-width="1" stroke-opacity="0.5"/>
  </g>
  <g>
    <path d="M73.5,2092 H976.5 A31.5,31.5 0 0 1 1008,2123.5 V2429.5 A31.5,31.5 0 0 1 976.5,2461 H73.5 A31.5,31.5 0 0 1 42,2429.5 V2123.5 A31.5,31.5 0 0 1 73.5,2092 Z" fill="#F4F3FA" fill-opacity="1" stroke="#3B72A8" stroke-width="1.5" stroke-opacity="1"/>
    <text x="45" y="2104" font-family="system-ui, sans-serif" font-size="9" fill="#3B72A8">#FFF4F3FA</text>
  </g>
  <g>
    <rect x="42" y="2092" width="966" height="369" fill="none" fill-opacity="0" stroke="#A85B6B" stroke-width="1" stroke-opacity="0.5"/>
  </g>
  <g>
    <rect x="84" y="2134" width="882" height="285" fill="none" fill-opacity="0" stroke="#4F8A4A" stroke-width="1" stroke-opacity="0.5"/>
  </g>
  <g>
    <rect x="84" y="2134" width="291" height="63" fill="none" fill-opacity="0" stroke="#7A7A33" stroke-width="1" stroke-opacity="0.5"/>
  </g>
  <g>
    <rect x="84" y="2134" width="63" height="63" fill="none" fill-opacity="0" stroke="#5B6470" stroke-width="1" stroke-opacity="0.5"/>
  </g>
  <g>
    <rect x="168" y="2134" width="207" height="63" fill="none" fill-opacity="0" stroke="#5B6470" stroke-width="1" stroke-opacity="0.5"/>
  </g>
  <g>
    <rect x="84" y="2218" width="882" height="201" fill="none" fill-opacity="0" stroke="#7A7A33" stroke-width="1" stroke-opacity="0.5"/>
  </g>
  <g>
    <path d="M136.5,2229 H235.5 A52.5,52.5 0 0 1 288,2281.5 V2281.5 A52.5,52.5 0 0 1 235.5,2334 H136.5 A52.5,52.5 0 0 1 84,2281.5 V2281.5 A52.5,52.5 0 0 1 136.5,2229 Z" fill="#6E7488" fill-opacity="1" stroke="#5B6470" stroke-width="1.5" stroke-opacity="1"/>
    <text x="87" y="2241" font-family="system-ui, sans-serif" font-size="9" fill="#5B6470">#FF6E7488</text>
  </g>
  <g>
    <rect x="147" y="2250" width="78" height="63" fill="none" fill-opacity="0" stroke="#2E7D6B" stroke-width="1" stroke-opacity="0.5"/>
  </g>
  <g>
    <rect x="156" y="2255" width="61" height="53" fill="none" fill-opacity="0" stroke="#8E6BA8" stroke-width="1" stroke-opacity="0.5"/>
  </g>
  <g>
    <path d="M382.99875,2218 H440.00125 A73.99875,73.99875 0 0 1 514,2291.99875 V2292.00125 A73.99875,73.99875 0 0 1 440.00125,2366 H382.99875 A73.99875,73.99875 0 0 1 309,2292.00125 V2291.99875 A73.99875,73.99875 0 0 1 382.99875,2218 Z" fill="#6E7488" fill-opacity="1" stroke="#5B6470" stroke-width="1.5" stroke-opacity="1"/>
    <text x="312" y="2230" font-family="system-ui, sans-serif" font-size="9" fill="#5B6470">#FF6E7488</text>
  </g>
  <g>
    <rect x="372" y="2239" width="79" height="106" fill="none" fill-opacity="0" stroke="#2E7D6B" stroke-width="1" stroke-opacity="0.5"/>
  </g>
  <g>
    <rect x="372" y="2239" width="79" height="106" fill="none" fill-opacity="0" stroke="#8E6BA8" stroke-width="1" stroke-opacity="0.5"/>
  </g>
  <g>
    <path d="M635.5,2218 H639.5 A100.5,100.5 0 0 1 740,2318.5 V2318.5 A100.5,100.5 0 0 1 639.5,2419 H635.5 A100.5,100.5 0 0 1 535,2318.5 V2318.5 A100.5,100.5 0 0 1 635.5,2218 Z" fill="#6E7488" fill-opacity="1" stroke="#5B6470" stroke-width="1.5" stroke-opacity="1"/>
    <text x="538" y="2230" font-family="system-ui, sans-serif" font-size="9" fill="#5B6470">#FF6E7488</text>
  </g>
  <g>
    <rect x="598" y="2239" width="79" height="159" fill="none" fill-opacity="0" stroke="#2E7D6B" stroke-width="1" stroke-opacity="0.5"/>
  </g>
  <g>
    <rect x="598" y="2239" width="79" height="159" fill="none" fill-opacity="0" stroke="#8E6BA8" stroke-width="1" stroke-opacity="0.5"/>
  </g>
  <g>
    <path d="M834.99875,2218 H892.00125 A73.99875,73.99875 0 0 1 966,2291.99875 V2292.00125 A73.99875,73.99875 0 0 1 892.00125,2366 H834.99875 A73.99875,73.99875 0 0 1 761,2292.00125 V2291.99875 A73.99875,73.99875 0 0 1 834.99875,2218 Z" fill="#6E7488" fill-opacity="1" stroke="#5B6470" stroke-width="1.5" stroke-opacity="1"/>
    <text x="764" y="2230" font-family="system-ui, sans-serif" font-size="9" fill="#5B6470">#FF6E7488</text>
  </g>
  <g>
    <rect x="824" y="2239" width="79" height="106" fill="none" fill-opacity="0" stroke="#2E7D6B" stroke-width="1" stroke-opacity="0.5"/>
  </g>
  <g>
    <rect x="824" y="2239" width="79" height="106" fill="none" fill-opacity="0" stroke="#8E6BA8" stroke-width="1" stroke-opacity="0.5"/>
  </g>
  <g>
    <path d="M73.5,2493 H976.5 A31.5,31.5 0 0 1 1008,2524.5 V2902.5 A31.5,31.5 0 0 1 976.5,2934 H73.5 A31.5,31.5 0 0 1 42,2902.5 V2524.5 A31.5,31.5 0 0 1 73.5,2493 Z" fill="#F4F3FA" fill-opacity="1" stroke="#3B72A8" stroke-width="1.5" stroke-opacity="1"/>
    <text x="45" y="2505" font-family="system-ui, sans-serif" font-size="9" fill="#3B72A8">#FFF4F3FA</text>
  </g>
  <g>
    <rect x="42" y="2493" width="966" height="441" fill="none" fill-opacity="0" stroke="#A85B6B" stroke-width="1" stroke-opacity="0.5"/>
  </g>
  <g>
    <rect x="84" y="2535" width="882" height="357" fill="none" fill-opacity="0" stroke="#4F8A4A" stroke-width="1" stroke-opacity="0.5"/>
  </g>
  <g>
    <rect x="84" y="2535" width="882" height="63" fill="none" fill-opacity="0" stroke="#7A7A33" stroke-width="1" stroke-opacity="0.5"/>
  </g>
  <g>
    <rect x="84" y="2535" width="144" height="63" fill="none" fill-opacity="0" stroke="#5B6470" stroke-width="1" stroke-opacity="0.5"/>
  </g>
  <g>
    <rect x="876" y="2535" width="90" height="63" fill="none" fill-opacity="0" stroke="#5B6470" stroke-width="1" stroke-opacity="0.5"/>
  </g>
  <g>
    <rect x="84" y="2624" width="882" height="116" fill="none" fill-opacity="0" stroke="#7A7A33" stroke-width="1" stroke-opacity="0.5"/>
  </g>
  <g>
    <rect x="89" y="2661" width="871" height="42" fill="none" fill-opacity="0" stroke="#5B6470" stroke-width="1" stroke-opacity="0.5"/>
  </g>
  <g>
    <rect x="89" y="2661" width="871" height="42" fill="none" fill-opacity="0" stroke="#2E7D6B" stroke-width="1" stroke-opacity="0.5"/>
  </g>
  <g>
    <rect x="389" y="2624" width="11" height="116" fill="none" fill-opacity="0" stroke="#5B6470" stroke-width="1" stroke-opacity="0.5"/>
  </g>
  <g>
    <path d="M394.5,2624 H394.5 A5.5,5.5 0 0 1 400,2629.5 V2734.5 A5.5,5.5 0 0 1 394.5,2740 H394.5 A5.5,5.5 0 0 1 389,2734.5 V2629.5 A5.5,5.5 0 0 1 394.5,2624 Z" fill="#2A4174" fill-opacity="1" stroke="#2E7D6B" stroke-width="1.5" stroke-opacity="1"/>
  </g>
  <g>
    <rect x="84" y="2766" width="420" height="126" fill="none" fill-opacity="0" stroke="#7A7A33" stroke-width="1" stroke-opacity="0.5"/>
  </g>
  <g>
    <path d="M147.5,2777 H147.5 A52.5,52.5 0 0 1 200,2829.5 V2829.5 A52.5,52.5 0 0 1 147.5,2882 H147.5 A52.5,52.5 0 0 1 95,2829.5 V2829.5 A52.5,52.5 0 0 1 147.5,2777 Z" fill="none" fill-opacity="0" stroke="#5B6470" stroke-width="1.5" stroke-opacity="1"/>
  </g>
  <g>
    <rect x="116" y="2798" width="63" height="63" fill="none" fill-opacity="0" stroke="#2E7D6B" stroke-width="1" stroke-opacity="0.5"/>
  </g>
  <g>
    <path d="M294.5,2777 H294.5 A52.5,52.5 0 0 1 347,2829.5 V2829.5 A52.5,52.5 0 0 1 294.5,2882 H294.5 A52.5,52.5 0 0 1 242,2829.5 V2829.5 A52.5,52.5 0 0 1 294.5,2777 Z" fill="none" fill-opacity="0" stroke="#5B6470" stroke-width="1.5" stroke-opacity="1"/>
  </g>
  <g>
    <rect x="263" y="2798" width="63" height="63" fill="none" fill-opacity="0" stroke="#2E7D6B" stroke-width="1" stroke-opacity="0.5"/>
  </g>
  <g>
    <path d="M441.5,2777 H441.5 A52.5,52.5 0 0 1 494,2829.5 V2829.5 A52.5,52.5 0 0 1 441.5,2882 H441.5 A52.5,52.5 0 0 1 389,2829.5 V2829.5 A52.5,52.5 0 0 1 441.5,2777 Z" fill="none" fill-opacity="0" stroke="#5B6470" stroke-width="1.5" stroke-opacity="1"/>
  </g>
  <g>
    <rect x="410" y="2798" width="63" height="63" fill="none" fill-opacity="0" stroke="#2E7D6B" stroke-width="1" stroke-opacity="0.5"/>
  </g>
  <g>
    <path d="M73.5,2966 H976.5 A31.5,31.5 0 0 1 1008,2997.5 V3165.5 A31.5,31.5 0 0 1 976.5,3197 H73.5 A31.5,31.5 0 0 1 42,3165.5 V2997.5 A31.5,31.5 0 0 1 73.5,2966 Z" fill="#F4F3FA" fill-opacity="1" stroke="#3B72A8" stroke-width="1.5" stroke-opacity="1"/>
    <text x="45" y="2978" font-family="system-ui, sans-serif" font-size="9" fill="#3B72A8">#FFF4F3FA</text>
  </g>
  <g>
    <rect x="42" y="2966" width="966" height="231" fill="none" fill-opacity="0" stroke="#A85B6B" stroke-width="1" stroke-opacity="0.5"/>
  </g>
  <g>
    <rect x="84" y="3008" width="882" height="147" fill="none" fill-opacity="0" stroke="#4F8A4A" stroke-width="1" stroke-opacity="0.5"/>
  </g>
  <g>
    <rect x="84" y="3008" width="882" height="147" fill="none" fill-opacity="0" stroke="#7A7A33" stroke-width="1" stroke-opacity="0.5"/>
  </g>
  <g>
    <rect x="84" y="3008" width="756" height="147" fill="none" fill-opacity="0" stroke="#5B6470" stroke-width="1" stroke-opacity="0.5"/>
  </g>
  <g>
    <rect x="84" y="3008" width="412" height="63" fill="none" fill-opacity="0" stroke="#2E7D6B" stroke-width="1" stroke-opacity="0.5"/>
  </g>
  <g>
    <rect x="84" y="3071" width="756" height="84" fill="none" fill-opacity="0" stroke="#2E7D6B" stroke-width="1" stroke-opacity="0.5"/>
  </g>
  <g>
    <path d="M903.5,3030 H903.5 A52.5,52.5 0 0 1 956,3082.5 V3082.5 A52.5,52.5 0 0 1 903.5,3135 H903.5 A52.5,52.5 0 0 1 851,3082.5 V3082.5 A52.5,52.5 0 0 1 903.5,3030 Z" fill="none" fill-opacity="0" stroke="#5B6470" stroke-width="1.5" stroke-opacity="1"/>
  </g>
  <g>
    <rect x="872" y="3051" width="63" height="63" fill="none" fill-opacity="0" stroke="#2E7D6B" stroke-width="1" stroke-opacity="0.5"/>
  </g>
</svg>
